<mxfile host="app.diagrams.net" modified="2023-07-08T16:02:12.787Z" agent="Mozilla/5.0 (Windows NT 10.0; Win64; x64) AppleWebKit/537.36 (KHTML, like Gecko) Chrome/114.0.0.0 Safari/537.36" version="21.6.1" etag="lFbGeVAzkiNV-LCXJiXd" type="github">
  <diagram name="PÃ¡gina-1" id="iFJ41CXrOq9x4Cgvu1oe">
    <mxGraphModel>
      <root>
        <mxCell id="0" />
        <mxCell id="1" parent="0" />
      </root>
    </mxGraphModel>
  </diagram>
</mxfile>
